<?xml version="1.0" encoding="utf-8"?>
<!-- Generator: Adobe Illustrator 23.0.3, SVG Export Plug-In . SVG Version: 6.00 Build 0)  -->
<svg version="1.1" id="Layer_1" xmlns="http://www.w3.org/2000/svg" xmlns:xlink="http://www.w3.org/1999/xlink" x="0px" y="0px"
	 viewBox="0 0 130 130" style="enable-background:new 0 0 130 130;" xml:space="preserve">
<style type="text/css">
	.st0{fill:#EB752F;}
	.st1{filter:url(#Adobe_OpacityMaskFilter);}
	.st2{fill-rule:evenodd;clip-rule:evenodd;fill:#FFFFFF;}
	.st3{mask:url(#mask-2_1_);fill-rule:evenodd;clip-rule:evenodd;fill:#FFFFFF;}
</style>
<title>ic_Notification</title>
<desc>Created with Sketch.</desc>
<g transform="translate(-2061.000000, -1568.000000)">
	<g id="ic_Notification" transform="translate(2061.000000, 1568.000000)">
		<circle id="Oval" class="st0" cx="65" cy="65" r="65"/>
		<g id="Group-13" transform="translate(28.000000, 19.000000)">
			<g id="Group-3" transform="translate(16.308722, 0.111385)">
				<g id="Clip-2">
				</g>
				<defs>
					<filter id="Adobe_OpacityMaskFilter" filterUnits="userSpaceOnUse" x="0" y="0.1" width="38.2" height="23.1">
						<feColorMatrix  type="matrix" values="1 0 0 0 0  0 1 0 0 0  0 0 1 0 0  0 0 0 1 0"/>
					</filter>
				</defs>
				<mask maskUnits="userSpaceOnUse" x="0" y="0.1" width="38.2" height="23.1" id="mask-2_1_">
					<g class="st1">
						<polygon id="path-1_1_" class="st2" points="0,0.1 38.2,0.1 38.2,23.2 0,23.2 						"/>
					</g>
				</mask>
				<path id="Fill-1" class="st3" d="M5,6.2C5.2,4.2,6.6,6,7.3,6.7c0.6,0.6,1.1,1.2,1.7,1.9c1.1,1.3,2.2,2.7,3.1,4.2
					c1.3,1.9,2.4,3.9,3.4,6c-2.4-0.6-4.6-1.7-6.3-3.5C7.1,13,4.8,9.5,5,6.2 M26.2,12.8c1-1.5,2-2.9,3.1-4.2c0.5-0.6,1.1-1.3,1.7-1.9
					c0.7-0.7,2-2.5,2.2-0.4c0.3,3.2-2,6.8-4.1,9c-1.7,1.8-3.9,2.9-6.3,3.5C23.8,16.7,24.9,14.7,26.2,12.8 M13.3,23.2h11.6
					c3-1,5.8-2.7,8.1-5c3.2-3.3,6.7-10.2,4.5-14.8c-1-2-3.5-4-5.9-3.1c-2.7,1-4.5,3.2-6.3,5.4c-2.4,2.9-4.5,6.1-6.2,9.4
					c-1.7-3.3-3.8-6.5-6.2-9.4c-1.8-2.2-3.6-4.4-6.3-5.4c-2.4-0.9-4.9,1-5.9,3.1C-1.5,8,2,14.8,5.2,18.2
					C7.5,20.5,10.3,22.2,13.3,23.2"/>
			</g>
			<polygon id="Fill-4" class="st2" points="70.4,25.8 0,25.8 0,43 4.4,43 66.4,43 70.4,43 			"/>
			<path id="Fill-6_2_" class="st2" d="M66.4,51.4v-6h-62v39.9h62v-4V51.4z"/>
			<path id="Fill-6_1_" class="st2" d="M63.6,81.6"/>
		</g>
	</g>
</g>
</svg>
