<?xml version="1.0" encoding="utf-8"?>
<!-- Generator: Adobe Illustrator 21.1.0, SVG Export Plug-In . SVG Version: 6.00 Build 0)  -->
<svg version="1.1" id="Calque_1" xmlns="http://www.w3.org/2000/svg" xmlns:xlink="http://www.w3.org/1999/xlink" x="0px" y="0px"
	 viewBox="0 0 428 47.5" style="enable-background:new 0 0 428 47.5;" xml:space="preserve">
<style type="text/css">
	.st0{fill:#ED751F;}
	.st1{fill:#3C519E;}
	.st2{fill:#E42320;}
	.st3{fill:#6F5CA3;}
	.st4{fill:#FFE665;}
	.st5{fill:#5AB146;}
</style>
<title>Logo_ED</title>
<g>
</g>
<path class="st0" d="M50,5.5h17.6v6H56v5.8h11.5v5.9H56v8.5h11.5v6H50V5.5z"/>
<path class="st0" d="M70.5,13.9h6.9l4.7,6.5l4.7-6.5h6.8l-8.1,11.2l9.2,12.6h-6.9l-5.7-7.8l-5.6,7.8h-6.8l9-12.5L70.5,13.9z"/>
<path class="st0" d="M103.7,13.9v2.6c1.1-1.1,2.2-1.9,3.5-2.4c1.3-0.5,2.6-0.8,4-0.8c3.1,0,5.8,1.2,7.9,3.5c2.2,2.4,3.3,5.4,3.3,9
	c0,3.5-1.1,6.5-3.4,8.9c-2.2,2.4-4.9,3.6-8,3.6c-1.4,0-2.7-0.2-3.8-0.7c-1.2-0.5-2.4-1.3-3.5-2.4v11.2h-5.9V13.9H103.7z M110,18.8
	c-1.9,0-3.4,0.6-4.7,1.9c-1.2,1.3-1.9,3-1.9,5c0,2.1,0.6,3.8,1.9,5.1c1.2,1.3,2.8,2,4.7,2c1.8,0,3.4-0.7,4.6-2
	c1.2-1.3,1.9-3,1.9-5.1c0-2-0.6-3.7-1.8-5C113.4,19.5,111.8,18.8,110,18.8z"/>
<path class="st0" d="M145,13.9h6v23.8h-6v-2.5c-1.2,1.1-2.3,1.9-3.5,2.4c-1.2,0.5-2.4,0.7-3.8,0.7c-3.1,0-5.7-1.2-8-3.6
	c-2.2-2.4-3.4-5.4-3.4-8.9c0-3.7,1.1-6.7,3.3-9c2.2-2.4,4.8-3.5,7.9-3.5c1.4,0,2.8,0.3,4,0.8c1.3,0.5,2.4,1.4,3.5,2.4V13.9z
	 M138.7,18.8c-1.8,0-3.4,0.7-4.6,2c-1.2,1.3-1.8,3-1.8,5c0,2.1,0.6,3.8,1.9,5.1c1.2,1.3,2.8,2,4.6,2c1.9,0,3.4-0.7,4.7-2
	c1.2-1.3,1.9-3,1.9-5.1c0-2.1-0.6-3.8-1.9-5C142.1,19.4,140.6,18.8,138.7,18.8z"/>
<path class="st0" d="M157.7,5.1h6v8.8h3.5V19h-3.5v18.7h-6V19h-3.1v-5.1h3.1V5.1z"/>
<path class="st0" d="M171.3,23.1h11.1v5.6h-11.1V23.1z"/>
<path class="st0" d="M190,5.5h7.3c4.7,0,8.2,0.6,10.4,1.7c2.3,1.2,4.2,3,5.6,5.7c1.5,2.6,2.2,5.7,2.2,9.2c0,2.5-0.4,4.8-1.2,6.8
	c-0.8,2.1-2,3.8-3.4,5.2c-1.5,1.4-3,2.3-4.7,2.8c-1.7,0.5-4.6,0.8-8.8,0.8H190V5.5z M196,11.4v20.3h2.8c2.8,0,4.8-0.3,6.1-1
	c1.3-0.6,2.3-1.7,3.1-3.2s1.2-3.4,1.2-5.6c0-3.4-1-6.1-2.9-8c-1.7-1.7-4.5-2.5-8.3-2.5H196z"/>
<path class="st0" d="M238.3,13.9h6v23.8h-6v-2.5c-1.2,1.1-2.3,1.9-3.5,2.4c-1.2,0.5-2.4,0.7-3.8,0.7c-3.1,0-5.7-1.2-8-3.6
	c-2.2-2.4-3.4-5.4-3.4-8.9c0-3.7,1.1-6.7,3.3-9c2.2-2.4,4.8-3.5,7.9-3.5c1.4,0,2.8,0.3,4,0.8c1.3,0.5,2.4,1.4,3.5,2.4V13.9z
	 M232,18.8c-1.8,0-3.4,0.7-4.6,2c-1.2,1.3-1.8,3-1.8,5c0,2.1,0.6,3.8,1.9,5.1c1.2,1.3,2.8,2,4.6,2c1.9,0,3.4-0.7,4.7-2
	c1.2-1.3,1.9-3,1.9-5.1c0-2.1-0.6-3.8-1.9-5C235.5,19.4,233.9,18.8,232,18.8z"/>
<path class="st0" d="M250.4,4.7h6v19l8.8-9.8h7.5l-10.3,11.4l11.5,12.4h-7.4l-10.1-11v11h-6V4.7z"/>
<path class="st0" d="M293.9,13.9h6v23.8h-6v-2.5c-1.2,1.1-2.3,1.9-3.5,2.4c-1.2,0.5-2.4,0.7-3.8,0.7c-3.1,0-5.7-1.2-8-3.6
	c-2.2-2.4-3.4-5.4-3.4-8.9c0-3.7,1.1-6.7,3.3-9c2.2-2.4,4.8-3.5,7.9-3.5c1.4,0,2.8,0.3,4,0.8c1.3,0.5,2.4,1.4,3.5,2.4V13.9z
	 M287.6,18.8c-1.8,0-3.4,0.7-4.6,2c-1.2,1.3-1.8,3-1.8,5c0,2.1,0.6,3.8,1.9,5.1c1.2,1.3,2.8,2,4.6,2c1.9,0,3.4-0.7,4.7-2
	c1.2-1.3,1.9-3,1.9-5.1c0-2.1-0.6-3.8-1.9-5C291.1,19.4,289.5,18.8,287.6,18.8z"/>
<path class="st0" d="M304.6,13.9h5.1v3c0.6-1.2,1.3-2.1,2.2-2.7c0.9-0.6,1.9-0.9,3-0.9c0.8,0,1.6,0.2,2.4,0.6l-1.9,5.1
	c-0.7-0.4-1.3-0.5-1.7-0.5c-0.9,0-1.7,0.6-2.3,1.7c-0.6,1.1-1,3.4-1,6.7l0,1.2v9.6h-5.9V13.9z"/>
<path class="st1" d="M323.6,31.5c0.9,0,1.8,0.3,2.4,1c0.7,0.7,1,1.5,1,2.4s-0.3,1.8-1,2.4c-0.7,0.7-1.5,1-2.4,1s-1.8-0.3-2.4-1
	c-0.7-0.7-1-1.5-1-2.4s0.3-1.8,1-2.4C321.8,31.8,322.6,31.5,323.6,31.5z"/>
<path class="st1" d="M356.2,18.7l-5,2.7c-0.9-1-1.9-1.7-2.8-2c-0.9-0.4-2-0.6-3.2-0.6c-2.2,0-4,0.7-5.4,2c-1.4,1.3-2.1,3-2.1,5.1
	c0,2,0.7,3.7,2,5c1.3,1.3,3.1,1.9,5.2,1.9c2.7,0,4.8-0.9,6.3-2.7l4.7,3.2c-2.6,3.3-6.2,5-10.8,5c-4.2,0-7.5-1.2-9.8-3.7
	c-2.4-2.5-3.6-5.4-3.6-8.7c0-2.3,0.6-4.4,1.7-6.4c1.2-1.9,2.8-3.5,4.8-4.6c2.1-1.1,4.4-1.7,6.9-1.7c2.4,0,4.5,0.5,6.4,1.4
	C353.5,15.6,355,17,356.2,18.7z"/>
<path class="st1" d="M372.8,13.3c2.2,0,4.4,0.6,6.3,1.7c2,1.1,3.5,2.7,4.6,4.6s1.7,4,1.7,6.2c0,2.2-0.6,4.4-1.7,6.3
	c-1.1,2-2.6,3.5-4.6,4.6c-1.9,1.1-4.1,1.7-6.4,1.7c-3.4,0-6.3-1.2-8.8-3.6c-2.4-2.4-3.6-5.4-3.6-8.9c0-3.7,1.4-6.8,4.1-9.3
	C366.9,14.4,369.7,13.3,372.8,13.3z M372.9,18.9c-1.9,0-3.4,0.6-4.6,1.9c-1.2,1.3-1.9,2.9-1.9,5c0,2.1,0.6,3.8,1.8,5
	c1.2,1.3,2.8,1.9,4.6,1.9c1.9,0,3.4-0.6,4.7-1.9c1.2-1.3,1.9-3,1.9-5c0-2-0.6-3.7-1.8-5S374.8,18.9,372.9,18.9z"/>
<path class="st1" d="M390.3,13.9h6v2.7c1-1.1,2.2-2,3.4-2.5c1.2-0.6,2.6-0.8,4.1-0.8c1.5,0,2.8,0.4,4,1.1c1.2,0.7,2.2,1.8,2.9,3.2
	c0.9-1.4,2.1-2.5,3.5-3.2s2.9-1.1,4.5-1.1c1.7,0,3.2,0.4,4.5,1.2c1.3,0.8,2.2,1.8,2.8,3.1c0.6,1.3,0.8,3.3,0.8,6.2v14h-6V25.6
	c0-2.7-0.3-4.5-1-5.5c-0.7-1-1.7-1.4-3-1.4c-1,0-1.9,0.3-2.7,0.9c-0.8,0.6-1.4,1.4-1.8,2.4c-0.4,1-0.6,2.7-0.6,5v10.8h-6V26.2
	c0-2.1-0.2-3.7-0.5-4.6c-0.3-1-0.8-1.7-1.4-2.1c-0.6-0.5-1.4-0.7-2.3-0.7c-1,0-1.9,0.3-2.7,0.9c-0.8,0.6-1.4,1.4-1.8,2.5
	c-0.4,1.1-0.6,2.7-0.6,5v10.6h-6V13.9z"/>
<g>
	<path class="st2" d="M9.1,9.7c6.4-4.2,17.2,1.1,24.1,11.7c0.2,0.3,0.4,0.6,0.6,1c-0.9-2.6-2.2-5.3-3.9-8C23,3.8,12.2-1.5,5.8,2.7
		c-6.2,4-6,15.4,0.3,25.8C3.3,20.4,4.3,12.8,9.1,9.7z"/>
	<path class="st3" d="M12.7,15.4c3.5-2.1,9.2,0.5,12.9,5.8c0.1,0.2,0.2,0.3,0.3,0.5c-0.5-1.3-1.2-2.7-2.1-4c-3.7-5.3-9.5-8-12.9-5.8
		c-3.4,2.1-3.3,7.8,0.1,13C9.5,20.8,10.1,17,12.7,15.4z"/>
	<path class="st1" d="M15.1,19.7c2.4-1.5,6.5,0.3,9.2,4.1c0.1,0.1,0.2,0.2,0.2,0.3c-0.3-0.9-0.8-1.9-1.5-2.8
		c-2.6-3.8-6.7-5.6-9.2-4.1c-2.4,1.5-2.3,5.5,0.1,9.2C12.9,23.6,13.3,20.8,15.1,19.7z"/>
	<path class="st0" d="M31.3,37.8C24.9,42,14.1,36.7,7.2,26.1c-0.2-0.3-0.4-0.6-0.6-1c0.9,2.6,2.2,5.3,3.9,8
		C17.4,43.7,28.2,49,34.6,44.8c6.2-4,6-15.4-0.3-25.8C37.1,27.1,36.1,34.7,31.3,37.8z"/>
	<path class="st4" d="M27.7,32.1c-3.5,2.1-9.2-0.5-12.9-5.8c-0.1-0.2-0.2-0.3-0.3-0.5c0.5,1.3,1.2,2.7,2.1,4c3.7,5.3,9.5,8,12.9,5.8
		c3.4-2.1,3.3-7.8-0.1-13C30.8,26.7,30.3,30.5,27.7,32.1z"/>
	<path class="st5" d="M25.3,27.8c-2.4,1.5-6.5-0.3-9.2-4.1c-0.1-0.1-0.2-0.2-0.2-0.3c0.3,0.9,0.8,1.9,1.5,2.8
		c2.6,3.8,6.7,5.6,9.2,4.1c2.4-1.5,2.3-5.5-0.1-9.2C27.5,24,27.1,26.7,25.3,27.8z"/>
</g>
</svg>
