<svg viewBox="0 0 1612 630" xmlns="http://www.w3.org/2000/svg"><g fill="none" fill-rule="evenodd"><path d="M6.24500451e-14,319 L64,319 L64,332 C66.5226785,329.57431 70.5615552,326.48693 76,324 C81.9654431,319.837192 89.3304538,316.987303 97,315 C105.485961,312.949962 113.801296,312 122,312 C136.609072,312 149.676026,314.612397 162,320 C173.196545,325.536968 183.650109,333.611651 193,345 C202.419008,355.460791 209.071276,367.810306 214,381 C217.861772,395.121734 220,410.558626 220,427 C220,444.994772 217.861772,460.906647 214,475 C209.308855,488.930545 202.894169,501.517551 194,512 L194,512 C184.600433,523.366691 173.909288,531.203883 162,536 C148.963283,541.653472 135.183586,544.265869 120,544 C113.088553,544.265869 105.723542,543.553398 99,542 C91.7062639,540.22853 85.291577,538.091113 79,535 C73.4125272,532.153847 68.4233263,528.591486 64,525 L64,630 L6.24500451e-14,630 L6.24500451e-14,319 L6.24500451e-14,319 L6.24500451e-14,319 L6.24500451e-14,319 Z M62,427 C62,445.74538 66.4935732,460.275154 75,471 L75,471 C79.7377892,476.472279 84.7043702,480.045174 90,482 C95.5835474,484.809033 101.732648,486 109,486 C123.491003,486 134.37018,481.236139 142,472 C145.722365,467.659136 148.796915,461.704312 151,454 C153.053985,446.936345 154,438.361396 154,429 C154,418.829569 152.817481,410.25462 151,403 C148.560411,395.963039 145.485861,390.008213 141,385 C137.208226,380.004108 132.478149,376.19302 127,374 C121.125964,371.190967 114.74036,370 108,370 C93.2185089,370 82.1028277,374.525668 75,384 C70.2776349,389.293635 67.2030849,395.248461 66,401 C62.9460154,409.301848 62,417.638604 62,427 L62,427 L62,427 L62,427 Z" fill="#FF2726"/><path d="M260,241.145111 C260,236.176657 260.949367,231.444795 262.848102,226.949528 C264.509493,222.454259 267.357594,218.432177 271.392404,215.119873 C274.952532,211.570977 278.987341,208.73186 283.496835,206.839117 C287.531645,204.946372 292.27848,204 297.737341,204 C302.72152,204 307.705697,204.946372 312.215189,206.602524 C316.487342,208.258676 320.522152,211.097793 324.31962,214.883281 C327.879748,218.66877 330.490507,222.690852 332.389241,226.712934 C334.050633,231.208201 335,236.176657 335,241.145111 C335,251.791799 331.439874,260.782335 324.31962,267.880127 C320.522152,271.429023 316.25,274.26814 311.977849,276.160883 C307.231012,278.053628 302.484178,279 297.737341,279 C292.990506,279 288.00633,278.053628 283.259493,275.924291 C278.512658,273.794953 274.477848,271.192429 271.155062,267.643534 C267.594936,264.33123 264.984177,260.309148 262.848102,255.577287 C260.949367,251.318612 260,246.350158 260,241.145111 L260,241.145111 L260,241.145111 L260,241.145111 Z M266,319 L330,319 L330,537 L266,537 L266,319 L266,319 L266,319 L266,319 Z" fill="#FF2726"/><path d="M595,515 C594.524839,535.01418 592.386609,552.630597 588,567 C583.833694,582.15 577.181427,594.291045 569,603 C559.600433,612.383583 547.958964,619.287313 533,624 C519.211663,627.857463 502.580994,630 483,630 C468.606911,630 455.539956,628.333583 444,625 C431.544276,621.667912 421.090712,616.906717 413,611 C403.509718,604.527613 396.382288,596.909702 391,588 C386.403887,578.102985 384.028077,568.104478 384,557 L384,548 L393,548 L442,548 L450,548 L451,556 C451.025917,559.05821 451.738661,561.438807 453,564 C454.589633,566.2 456.49028,567.866418 459,569 L459,569 C460.529157,570.485075 463.855292,571.913433 469,573 C473.358532,574.05597 478.585313,574.29403 485,574 C493.552917,574.29403 501.155508,573.341792 507,571 C512.321814,570.008955 516.598272,567.628358 520,564 L520,564 C523.488121,560.962687 526.101512,556.439553 528,551 L528,551 C529.902808,543.822388 530.853131,536.204478 531,528 L531,525 C526.101512,528.586567 521.112311,531.919403 516,535 C509.470843,537.632837 502.818575,540.013433 496,541 C489.038877,543.10821 481.911446,543.822388 475,544 C459.578833,543.822388 445.799135,541.203732 433,536 C421.090712,530.729105 410.399567,522.635075 401,512 C392.343413,501.447762 385.691145,489.068657 381,474 C376.900647,460.025373 375,444.075373 375,427 C375,409.794777 377.138228,394.558955 381,381 C385.928724,366.46791 392.818573,354.088805 402,344 C410.87473,332.663432 421.565875,324.569402 433,319 C445.086393,313.618657 458.390929,311 473,311 C481.198704,311 489.51404,311.952238 498,314 C505.907127,315.999253 513.034558,318.85597 520,323 C523.963284,325.283582 527.764579,328.140298 531,331 L531,319 L595,319 L595,515 L595,515 L595,515 L595,515 Z M532,427 C532,417.065574 530.814433,408.745902 529,402 C526.783505,395.196721 523.701032,389.254099 520,384 C515.639176,379.508197 510.896907,376.180329 506,374 C500.463918,371.188524 493.824742,370 486,370 C479.360825,370 472.958763,371.188524 467,374 C461.577319,376.180329 456.835051,379.745902 453,385 C448.298968,390.204918 445.216495,396.147542 444,403 C441.185567,410.647542 440,419.204918 440,428 C440,437.745901 441.185567,446.065574 443,454 C445.216495,461.040984 448.298968,466.983606 452,472 C455.886598,476.491803 460.628865,480.057378 466,482 C471.773196,484.57377 478.412372,486 486,486 C492.402062,486 498.329898,484.811476 504,482 C509.237115,480.057378 514.216496,476.2541 519,471 C523.226805,465.081968 526.546393,458.901641 529,452 C530.814433,444.401639 532,436.081968 532,427 L532,427 L532,427 L532,427 Z" fill="#FF2726"/><path d="M634,241 C634,236.176657 634.949368,231.444795 637,227 C638.509494,222.454259 641.357596,218.432177 645,215 C648.952532,211.570977 652.987342,208.73186 657,207 C661.531647,204.946372 666.278481,204 672,204 C676.721519,204 681.705697,204.946372 686,207 C690.487342,208.258676 694.522152,211.097793 698,215 C701.879746,218.66877 704.490506,222.690852 706,227 C708.050633,231.208201 709,236.176657 709,241 C709,251.791799 705.439874,260.782335 698,268 C694.522152,271.429023 690.25,274.26814 686,276 C681.231013,278.053628 676.484177,279 672,279 C666.990507,279 662.243671,278.053628 657,276 C652.512658,273.794953 648.47785,271.192429 645,268 C641.594938,264.33123 638.984179,260.309148 637,256 C634.949368,251.318612 634,246.350158 634,241 L634,241 L634,241 L634,241 Z M640,319 L704,319 L704,536 L640,536 L640,319 L640,319 L640,319 L640,319 Z" fill="#FF2726"/><path d="M904,536 L904,524 C899.650486,528.276072 894.429341,531.849693 889,535 C882.563106,537.805725 875.918014,540.188139 869,542 C862.153183,543.285275 855.033441,544 848,544 C832.724919,544 818.960085,541.379346 806,536 C794.040992,530.896727 783.36138,522.796524 774,512 C765.324703,501.116564 758.679612,488.489774 755,474 C750.135922,460.615541 748,444.891616 748,427 C748,410.584868 750.135922,395.099182 755,381 C759.15426,366.510226 766.036677,354.121677 775,344 C784.073353,332.679959 794.752965,324.579755 807,319 C818.485437,313.620654 831.775621,311 846,311 C854.796116,311 862.865156,311.952965 871,314 C879.003236,316.003067 886.360303,318.861963 893,323 C896.090614,324.817997 900.125134,327.676892 904,331 L904,318 L968,318 L968,536 L904,536 L904,536 L904,536 L904,536 Z M906,427 C906,417.065574 904.814433,408.745902 903,402 C900.546392,394.721312 897.463917,388.778689 894,384 C889.639175,379.508197 884.896908,376.180329 880,374 C874.463918,371.188524 867.824743,370 860,370 C853.360824,370 846.958762,371.188524 841,374 C835.57732,376.180329 830.835051,379.745902 827,385 C822.536083,389.729508 819.453608,395.909837 818,403 C815.185567,409.934426 814,418.491804 814,428 C814,438.459017 815.185567,447.016393 817,454 C819.216495,461.040984 822.298969,466.983606 826,472 C830.123712,476.491803 834.865979,480.057378 840,482 C845.773196,484.57377 852.412371,486 860,486 C866.639174,486 872.804124,484.811476 878,482 C883.711341,480.057378 888.453608,476.2541 893,471 C897.463917,465.081968 900.783505,458.901641 903,452 C904.814433,444.401639 906,436.081968 906,427 L906,427 L906,427 L906,427 Z" fill="#FF2726"/><path d="M1007,536 L1007,319 L1068,319 L1068,335 C1073.1339,330.224683 1079.0812,325.952532 1086,322 C1092.64103,318.357594 1099.53989,315.746835 1107,314 C1114.52707,312.186709 1122.37749,311.237342 1131,311 C1139.26781,311.237342 1147.11823,312.186709 1154,314 C1162.10541,315.984177 1168.76638,318.832278 1174,323 C1180.42308,326.189872 1185.6567,330.936709 1190,337 C1191.3661,338.056961 1192.79345,340.193038 1195,344 C1198.74074,339.718354 1201.59544,337.107594 1203,335 C1209.92165,329.512658 1216.34473,325.003164 1223,322 C1228.95299,318.120252 1236.08974,315.509493 1244,314 C1251.07692,311.949367 1258.92735,311 1267,311 C1274.62821,311 1281.52707,311.712024 1288,313 C1293.65954,314.322784 1299.60684,316.221519 1306,319 C1311.97721,322.392404 1316.97293,325.952532 1321,330 C1325.53704,333.78481 1329.5812,338.531645 1332,344 C1333.38746,345.414557 1334.81482,348.262658 1336,353 C1337.43162,355.620252 1338.38319,358.705696 1339,362 C1339.81054,366.775316 1340.28633,370.810126 1341,374 C1340.76211,380.541138 1341,385.525316 1341,390 L1341,536 L1277,536 L1277,424 C1277.24501,411.158226 1276.53134,400.477847 1275,392 C1274.15242,385.287974 1272.48718,379.829113 1270,376 C1268.44302,373.658228 1265.82621,371.522151 1262,370 C1257.97578,368.436709 1252.98006,367.724683 1247,368 C1239.65812,367.724683 1233.23504,368.911391 1228,371 C1223.24359,373.420886 1219.19943,376.74367 1216,381 C1212.77635,385.999999 1210.39744,392.88291 1209,401 C1207.30484,410.446202 1206.35328,422.075948 1206,436 L1206,536 L1142,536 L1142,424 C1142.3604,412.344937 1141.64672,402.376582 1140,395 C1139.26781,387.898734 1137.36467,382.202531 1135,378 C1132.60684,374.844937 1129.75214,372.234177 1126,371 C1122.61538,368.911391 1117.61966,367.962025 1111,368 C1107.6282,367.962025 1104.05983,368.436709 1101,369 C1098.35043,369.623418 1095.01994,371.047469 1091,373 C1088.35897,374.370252 1085.74217,376.506328 1083,379 C1080.50855,381.015822 1078.36752,383.389239 1077,386 C1075.9886,387.898734 1075.03704,390.034809 1074,392 C1073.1339,395.256328 1072.42023,397.867087 1072,400 C1071.70655,404.275317 1071.23077,408.547467 1071,414 C1070.75499,417.566456 1070.51709,425.161392 1071,436 L1071,536 L1007,536 L1007,536 L1007,536 L1007,536 Z" fill="#000"/><path d="M1447,444 C1450.95238,472.574643 1468.33333,487.345605 1499,487 L1500,487 C1523.09524,487.107363 1540.2381,474.480573 1551,449 L1604,478 C1600.47619,483.771984 1597.14286,489.013292 1594,494 C1590.95238,498.542945 1586.90476,503.546014 1582,509 C1574.28571,517.125767 1565.95238,523.796524 1557,529 C1539.04762,539.520452 1518.09524,545 1494,545 C1459.52381,545 1431.90476,534.279143 1411,513 C1390.47619,491.872188 1380,463.521474 1380,429 C1380,395.146218 1390.71429,367.271985 1412,345 C1433.09524,322.959101 1460.47619,312 1494,312 C1528.33333,312 1555.71429,322.244376 1575,342 C1586.19048,353.453988 1593.80952,366.319018 1598,381 C1602.85714,395.146218 1605,410.155421 1605,426 L1605,444 L1447,444 L1447,444 L1447,444 L1447,444 Z M1538,395 C1534.9116,385.220183 1529.44751,378.541283 1522,375 C1513.76796,370.908256 1504.9779,369 1495,369 C1482.17127,369 1471.9558,371.862384 1465,378 L1464,378 C1458.8895,382.357799 1454.85083,388.082568 1452,395 L1538,395 L1538,395 L1538,395 L1538,395 Z" fill="#000"/><path d="M653,93 C639.711514,93 629,103.912189 629,117 C629,130.718218 639.949548,141.393185 653,141 C684.223802,141.393185 711.835705,153.491481 732,173 C752.06339,192.870249 764.441138,219.9135 764,250 C764.441138,263.087811 775.390685,274 789,274 C802.288486,274 813,263.087811 813,250 C813,206.391875 794.909443,167.013106 766,139 C737.305304,110.554391 697.315654,93 653,93" fill="#FF2726"/><path d="M882,262 C906,262 906,237.494074 906,237 C905.762376,172.065633 878.910891,112.823154 836,70 C792.178219,27.409298 732.297031,1 666,1 C652.693069,1 642,11.9443938 642,25 C642,38.8295349 652.930693,49.5360072 666,50 C719.227723,49.5360072 766.990099,70.7110298 802,105 C836.138615,138.756609 857.524752,185.389243 858,237 C857.524752,237.731996 857.28713,262 882,262" fill="#FF2726"/></g></svg>