<svg xmlns="http://www.w3.org/2000/svg" viewBox="0 0 835.79 240.96"><defs><style>.cls-1{fill:#ed7520;}.cls-2{fill:#39488b;}</style></defs><title>texte</title><g id="Calque_2" data-name="Calque 2"><g id="Calque_1-2" data-name="Calque 1"><path class="cls-1" d="M0,48.29A63.3,63.3,0,0,1,1.13,36.93c3-17.25,10.23-30.6,30.26-30.6,20.63,0,26.09,11,26.09,24a64.28,64.28,0,0,1-1.13,11.45C53.32,59,46.12,72.13,25.58,72.13,5.46,72.13,0,61.21,0,48.29Zm38.84-7.45a49.65,49.65,0,0,0,1-8.85c0-5.55-1.91-9.1-8.59-9.1-8.67,0-10.92,5.72-12.74,16.21a60.89,60.89,0,0,0-1,8.76c0,5.63,2.08,9.1,8.84,9.1C34.77,57,36.93,51.41,38.84,40.84Z"/><path class="cls-1" d="M64.94,22.46l13.52-1.05.44,3.3c3.38-3.12,8-4.16,13.35-4.16,11.7,0,14.91,6.93,14.91,16A68.22,68.22,0,0,1,106,48C103.52,61.9,99,72,86.27,72c-7.89,0-10.58-1.56-12.83-3.64l-3,16.73H53.93Zm24.1,25a40.18,40.18,0,0,0,.87-6.67c0-3.39-1.3-4.86-5-4.86-4.77,0-6.24,2.25-7.72,10.23a31.8,31.8,0,0,0-.6,5.9c0,3.81,1.38,5.63,6,5.63C86.44,57.74,87.65,55.66,89,47.51Z"/><path class="cls-1" d="M108.46,54.36a60.65,60.65,0,0,1,1-9.88c2.86-16.22,9.89-23.93,24.37-23.93,14.65,0,18.64,5.63,18.64,15,0,4.77-1,10.4-2.26,16.82H124.33v.69c0,3.64,1.65,4.86,7.11,4.86a33.26,33.26,0,0,0,12.14-2l4.16,12.83c-5.81,2.6-12.31,3.21-18.3,3.21C113.49,72,108.46,65.2,108.46,54.36ZM126,41.88h11.53a27.17,27.17,0,0,0,.34-3.3c0-2.43-1.12-3.64-5-3.64C128.4,34.94,127.1,36.67,126,41.88ZM138.72,0h18.21L140.72,17.17h-14Z"/><path class="cls-1" d="M161.44,22.46,175,21.41l.52,3.73c3-2.86,6.76-4.07,13.7-4.07l-2.77,15.69c-10.93,0-11.27,2.52-12.14,7.2L169.5,71.35H152.85Z"/><path class="cls-1" d="M183.37,59.22c0-15.78,8.59-19.94,23.32-19.94h6.07c.44-3-.08-4-5.11-4a35.57,35.57,0,0,0-11.53,1.56l-4.51-13.7c5.55-2.08,11.79-2.78,18.64-2.78,18.12,0,20.81,6.16,18.64,18.56l-2.6,14.91c-.43,2.6-.43,3.21,2.51,3.21l-2.51,14.3c-1.82.18-3.64.26-5.2.26-6.42,0-8.59-.69-9.8-4.07-2.86,2.86-7.2,4.42-12,4.42C186.67,72,183.37,66.41,183.37,59.22Zm27-6.68.61-3.47h-3c-6.42,0-8.33,2.17-8.33,5.9,0,2.42,1.13,3.55,4.94,3.55C208.08,58.52,209.56,57.31,210.42,52.54Z"/><path class="cls-1" d="M237.56,21.5h8.93l4.08-9.8,13.61-2.94L261.92,21.5H272l-2.51,14.39H259.41l-3,16.82c-.52,2.95-.35,4.34,4.51,4.34h4.77l-2.52,14.3a54,54,0,0,1-7,.52c-15.08,0-18.64-5.46-16.21-19l2.95-17h-7.89Z"/><path class="cls-1" d="M278.83,21.5h16.56l-8.76,49.85H270.07Zm2.95-16.82h16.73L296.08,18H279.35Z"/><path class="cls-1" d="M296,53.41a56.21,56.21,0,0,1,.86-8.93c2.86-16.13,9.63-23.93,25.41-23.93s21,7.63,21,18.9a48.3,48.3,0,0,1-.87,9c-2.95,16.65-9.45,23.67-25.4,23.67C301.37,72.13,296,64.85,296,53.41Zm29.65-6.16a40.77,40.77,0,0,0,.78-6.24c0-3.38-1.3-5-5.64-5-4.94,0-6,2.86-7.28,10.4a37.31,37.31,0,0,0-.69,6.16c0,3.47,1.3,5.2,5.46,5.2C323.39,57.74,324.35,54.79,325.65,47.25Z"/><path class="cls-1" d="M351.92,22.46l13.52-1.05.44,3.21c2.51-2.42,7.62-4.07,13.69-4.07,13.7,0,14.31,9.53,12.58,19.24L386.6,71.35H370l5-28.43c.78-4.51.95-6.51-4.08-6.51-4.33,0-5.2,1.91-6,6.07l-5,28.87H343.33Z"/><path class="cls-1" d="M420.06,7.11h21.5c18.38,0,23.59,6.93,23.59,16.91a39.56,39.56,0,0,1-.7,7c-2.16,12.31-7.8,20.72-23.75,20.72H429.08l-3.47,19.59H408.7ZM440.44,37.8c4.24,0,6.07-1.91,7-7.28a24.79,24.79,0,0,0,.35-3.21c0-3.47-1.74-5.29-6.85-5.29h-6.68L431.51,37.8Z"/><path class="cls-1" d="M460.73,59.22c0-15.78,8.58-19.94,23.32-19.94h6.07c.43-3-.09-4-5.12-4a35.61,35.61,0,0,0-11.53,1.56L469,23.15c5.55-2.08,11.79-2.78,18.64-2.78,18.12,0,20.81,6.16,18.64,18.56l-2.6,14.91c-.43,2.6-.43,3.21,2.52,3.21l-2.52,14.3c-1.82.18-3.64.26-5.2.26-6.42,0-8.58-.69-9.8-4.07C485.78,70.4,481.45,72,476.59,72,464,72,460.73,66.41,460.73,59.22Zm27-6.68.6-3.47h-3c-6.42,0-8.32,2.17-8.32,5.9,0,2.42,1.12,3.55,4.94,3.55C485.44,58.52,486.91,57.31,487.78,52.54Z"/><path class="cls-1" d="M517.69,22.46l13.52-1.05.52,3.73c2.95-2.86,6.77-4.07,13.7-4.07l-2.77,15.69c-10.93,0-11.27,2.52-12.14,7.2l-4.77,27.39H509.1Z"/><path class="cls-1" d="M549.07,22.46l13.53-1.05.52,3.73c3-2.86,6.76-4.07,13.7-4.07L574,36.76c-10.92,0-11.27,2.52-12.13,7.2l-4.77,27.39H540.49Z"/><path class="cls-1" d="M571,59.22c0-15.78,8.58-19.94,23.32-19.94h6.07c.43-3-.09-4-5.11-4a35.68,35.68,0,0,0-11.54,1.56l-4.5-13.7c5.54-2.08,11.79-2.78,18.64-2.78,18.12,0,20.81,6.16,18.64,18.56l-2.6,14.91c-.44,2.6-.44,3.21,2.51,3.21l-2.51,14.3c-1.82.18-3.64.26-5.21.26-6.41,0-8.58-.69-9.79-4.07-2.86,2.86-7.2,4.42-12,4.42C574.3,72,571,66.41,571,59.22Zm27-6.68.61-3.47h-3c-6.41,0-8.32,2.17-8.32,5.9,0,2.42,1.13,3.55,4.94,3.55C595.72,58.52,597.19,57.31,598.06,52.54Z"/><path class="cls-1" d="M628.58,21.5h16.56l-8.76,49.85H619.82Zm2.95-16.82h16.73L645.83,18H629.1Z"/><path class="cls-1" d="M652.68,22.46l13.53-1.05.43,3.21c2.51-2.42,7.63-4.07,13.7-4.07,13.7,0,14.3,9.53,12.57,19.24l-5.55,31.56H670.71l5-28.43c.78-4.51,1-6.51-4.07-6.51-4.34,0-5.2,1.91-6,6.07l-5,28.87H644.1Z"/><path class="cls-1" d="M694.3,59.22c0-15.78,8.58-19.94,23.32-19.94h6.07c.43-3-.09-4-5.12-4A35.61,35.61,0,0,0,707,36.85l-4.51-13.7c5.55-2.08,11.79-2.78,18.64-2.78,18.12,0,20.81,6.16,18.64,18.56l-2.6,14.91c-.43,2.6-.43,3.21,2.52,3.21l-2.52,14.3c-1.82.18-3.64.26-5.2.26-6.41,0-8.58-.69-9.8-4.07C719.35,70.4,715,72,710.16,72,697.59,72,694.3,66.41,694.3,59.22Zm27.05-6.68.6-3.47h-3c-6.42,0-8.32,2.17-8.32,5.9,0,2.42,1.12,3.55,4.94,3.55C719,58.52,720.48,57.31,721.35,52.54Z"/><path class="cls-1" d="M761.4,53.41v.86c0,1.56.44,2.43,5,2.52,15.6.34,20.46,2.77,20.46,12,0,14.57-10.67,17.26-25.23,17.26-16,0-23.33-3.64-23.33-11.19,0-8,5.9-11,11.54-12.14-1.82-1.3-2.69-4-2.69-6.15a10,10,0,0,1,3.55-7.37c-2.42-2.17-3.73-5.29-3.73-9.28,0-15.34,10.32-19.33,21.42-19.33,1.47,0,2.95,0,4.42.08l22.63-5.2-2.17,12.66h-7.37c2.26,1.47,3.82,4.77,3.82,9.8,0,13.44-11.1,15.86-21.68,15.86A51.54,51.54,0,0,1,761.4,53.41Zm8.15,17.08c0-2.34-1.64-3.12-7.89-3.12-4.68,0-6.24.86-6.24,4.42,0,2.08,1.22,3.55,7.2,3.55C768.43,75.34,769.55,73.7,769.55,70.49Zm3.82-33.56c0-2.25-1-3.81-4.77-3.81-3.9,0-5.55,2.43-5.55,7.11,0,2.34,1,4.16,4.6,4.16C772.07,44.39,773.37,41.62,773.37,36.93Z"/><path class="cls-1" d="M791.75,54.36a59.57,59.57,0,0,1,1-9.88c2.86-16.22,9.88-23.93,24.36-23.93,14.65,0,18.64,5.63,18.64,15,0,4.77-1,10.4-2.25,16.82H807.61v.69c0,3.64,1.65,4.86,7.11,4.86a33.22,33.22,0,0,0,12.14-2L831,68.75c-5.81,2.6-12.31,3.21-18.29,3.21C796.78,72,791.75,65.2,791.75,54.36Zm17.51-12.48h11.53a25.51,25.51,0,0,0,.35-3.3c0-2.43-1.13-3.64-5-3.64C811.69,34.94,810.39,36.67,809.26,41.88Z"/><path class="cls-2" d="M3.73,135.39c0-18.13,5-25.35,19.53-25.35,6,0,10.24,1.47,13.45,3.54l-4.08,6.36a18.25,18.25,0,0,0-9.7-2.48c-7.7,0-11.44,3.48-11.44,18.06,0,13.92,2.67,18.53,11.17,18.53,7.36,0,9-3.27,9-14.05v-1.53h-11v-6.76H39.05v7c0,16.53-3.28,22-17.06,22C7.61,160.68,3.73,151.78,3.73,135.39Z"/><path class="cls-2" d="M43.13,148.9c0-10.7,6.16-13.71,19.2-13.71H63.8c-.13-4.28-1.27-6.36-6.08-6.36a20.85,20.85,0,0,0-9.3,2l-3.08-6.09c3-1.6,7.36-2.74,13.18-2.74,10,0,12.57,3.88,12.57,13v15.12c0,2.75.21,3.41,2.81,3.41v6.56c-.73.07-1.47.07-2.14.07-4,0-6-.6-6.82-3.35-2.14,2.75-5.42,3.68-10.5,3.68C45.61,160.54,43.13,156,43.13,148.9Zm20.67-3.14v-4.55H62.4c-8.7,0-12.11.94-12.11,6.89,0,4.75,1.87,6.22,5.75,6.22C60.39,154.32,63.8,152.58,63.8,145.76Z"/><path class="cls-2" d="M87.49,146.49a4.92,4.92,0,0,0-.27,1.68c0,1.8,1.2,2.34,5.42,2.34,11.9,0,15.18,2.41,15.18,9.5,0,8.16-4.95,11.3-15.65,11.3-11,0-15.65-2-15.65-9,0-4.48,2-7.56,6.48-8.7a5.59,5.59,0,0,1-2.14-4.81,7.47,7.47,0,0,1,1.41-4.35c-2.54-1.87-4-5-4-9.77,0-9.09,5-12.64,13.78-12.64.81,0,1.67.07,2.61.13l12.78-2.2v5.88h-5.35c2.27,1.54,3.74,4.35,3.74,8.83,0,9.17-5.42,12.18-13.78,12.18A24.65,24.65,0,0,1,87.49,146.49Zm12.77,13.92c0-3.08-1.33-4.22-8.16-4.22-6.29,0-8.16,1.61-8.16,4.82,0,3.54,1.81,4.61,8.16,4.61C98.86,165.62,100.26,164.15,100.26,160.41Zm-1.74-25.69c0-4.28-2-6.15-6.42-6.15s-6.42,1.87-6.42,6.15,2.07,6.16,6.42,6.16S98.52,139,98.52,134.72Z"/><path class="cls-2" d="M113.44,123.21l6-.53.6,3.41c1.67-2.41,4.61-4,11.3-4,9.44,0,10.84,5.68,10.84,13.71v24.35h-7.49V137.53c0-5.49-.6-8.3-6.09-8.3-6.62,0-7.62,3.62-7.62,11v19.93h-7.5Z"/><path class="cls-2" d="M147.63,141.34c0-11.7,3-19.26,15.18-19.26,13.32,0,13.38,8.36,13.25,22.88H154.85c.34,6.15,1.88,9.23,8.16,9.23a19.23,19.23,0,0,0,9.57-2.21l2.88,5.75c-3.08,1.67-6.89,2.88-12.85,2.88C150,160.61,147.63,153.25,147.63,141.34Zm7.22-2.94h14.32c-.07-6.09-.27-9.7-6.56-9.7C156.59,128.7,155.12,132.18,154.85,138.4Z"/><path class="cls-2" d="M179.2,155.06l16-25.76H180.14v-6.55h24.35v5.15L188.44,154h16.65v6.15H179.2Z"/><path class="cls-2" d="M220.28,141.28c0-10.37,1.54-19.2,12.71-19.2,5.89,0,8.5,1.2,10.23,3.48V108.7h7.5v51.17l-6,.47-.61-3.81c-1.8,2.54-4.88,4.08-11.43,4.08C221.55,160.61,220.28,151.58,220.28,141.28Zm22.94.13c0-7.36-.73-12.38-8.16-12.38-6.35,0-7.29,4.82-7.29,12.38s.8,12.64,7.29,12.64C242.42,154.05,243.22,149,243.22,141.41Z"/><path class="cls-2" d="M257.61,145.82V122.75h7.56v22.67c0,5.76.47,8.57,6.69,8.57,6,0,6.62-2.81,6.62-8.63V122.75h7.36v23.07c0,10.24-2.41,14.86-14.12,14.86C260.28,160.68,257.61,156.06,257.61,145.82Z"/><path class="cls-2" d="M303.17,141.34c0-11.84,2.67-19.26,15.31-19.26a21,21,0,0,1,9.57,1.94l-3.28,6.49a12,12,0,0,0-5.95-1.41c-6.36,0-8,4-8,12.44s1.54,12.58,8.16,12.58a15.12,15.12,0,0,0,6.69-1.67l2.88,5.75a21.77,21.77,0,0,1-10.5,2.48C305.91,160.68,303.17,153.25,303.17,141.34Z"/><path class="cls-2" d="M333.34,123.21l5.88-.53.67,3.95c1.54-2.41,4.28-4.22,10.44-4.22v7.09c-9,.14-9.5,5.69-9.5,12v18.6h-7.49Z"/><path class="cls-2" d="M352.2,141.34c0-11.7,3-19.26,15.19-19.26,13.31,0,13.38,8.36,13.24,22.88h-21.2c.33,6.15,1.87,9.23,8.16,9.23a19.19,19.19,0,0,0,9.56-2.21l2.88,5.75c-3.08,1.67-6.89,2.88-12.84,2.88C354.61,160.61,352.2,153.25,352.2,141.34Zm7.23-2.94h14.31c-.06-6.09-.27-9.7-6.55-9.7C361.17,128.7,359.69,132.18,359.43,138.4Zm9.36-30.7h8.36L368,119H361.5Z"/><path class="cls-2" d="M385.05,141.28c0-10.37,1.54-19.2,12.71-19.2,5.89,0,8.49,1.2,10.23,3.48V108.7h7.5v51.17l-6,.47-.61-3.81c-1.8,2.54-4.88,4.08-11.44,4.08C386.32,160.61,385.05,151.58,385.05,141.28Zm22.94.13c0-7.36-.73-12.38-8.16-12.38-6.35,0-7.29,4.82-7.29,12.38s.8,12.64,7.29,12.64C407.19,154.05,408,149,408,141.41Z"/><path class="cls-2" d="M422.85,110.5h7.56v8.1h-7.56Zm0,12.25h7.49v37.39h-7.49Z"/><path class="cls-2" d="M435.29,122.75h6.09l1.13-9.44,6-1.27v10.71h8.7v6.55h-8.7v19.6c0,3.08.47,4.68,4.49,4.68h4.21v6.56c-1.2.07-4.08.2-5.08.2-8.9,0-11-3.14-11-10.63V129.3h-5.82Z"/><path class="cls-2" d="M474.09,141.61c0-11.31,2.41-18.93,13.91-18.93,12.25,0,12.31,7.89,12.25,21H478.77c.2,8,1.74,12.65,9.44,12.65a18.65,18.65,0,0,0,9.23-2.14l1.94,3.81A22.64,22.64,0,0,1,488,160.61C476.1,160.61,474.09,153.12,474.09,141.61Zm4.68-2.41H495.7c-.2-7.29-.14-12.17-7.76-12.17C480.71,127,479,131.71,478.77,139.2Z"/><path class="cls-2" d="M506.6,123.55l3.88-.27.47,3.88c1.47-2.61,4.22-4.48,11.11-4.48,9.56,0,10.56,5.42,10.56,13.51v23.95h-4.81V137.2c0-6.49-.67-9.91-7.29-9.91-7.83,0-9,4.62-9,13.79v19.06H506.6Z"/><path class="cls-2" d="M552.56,123.55l3.88-.27.4,4.08c1.54-2.74,4.55-4.68,11.44-4.68,10.91,0,12.18,8.9,12.18,18.93s-1.41,19-12.31,19c-6.49,0-9.1-1.61-10.7-4.22v14.32h-4.89Zm23,18.26c0-8.23-1-14.58-8.63-14.58-8.83,0-9.49,6.42-9.49,14.58s.66,14.45,9.49,14.45C574.5,156.26,575.57,150.11,575.57,141.81Z"/><path class="cls-2" d="M585.08,149.1c0-10.83,6.55-13.51,19-13.51h1.61c-.13-5.55-1.2-8.5-7.09-8.5a20.49,20.49,0,0,0-9,2l-2.08-4A25.51,25.51,0,0,1,599,122.61c9.63,0,11.51,4.22,11.51,13.18V152c0,3,.2,3.81,3,3.81v4.35a7.73,7.73,0,0,1-1.27.07c-4.15,0-5.36-1-5.89-3.82-2.28,3.22-5.89,4.15-10.57,4.15C588.09,160.54,585.08,156.46,585.08,149.1Zm20.6-3.28v-6h-1.54c-9.9,0-14.38,1.28-14.38,8.9,0,6,2.61,7.69,7,7.69C601.33,156.39,605.68,154.25,605.68,145.82Z"/><path class="cls-2" d="M619.86,123.55l3.82-.27.53,4.42c1.34-2.61,4.15-4.75,10.24-4.75v4.61c-9.24.2-9.7,7.09-9.7,14.32v18.26h-4.89Z"/><path class="cls-2" d="M639.06,123.55l3.82-.27.53,4.42c1.34-2.61,4.15-4.75,10.24-4.75v4.61c-9.24.2-9.7,7.09-9.7,14.32v18.26h-4.89Z"/><path class="cls-2" d="M655.39,149.1c0-10.83,6.55-13.51,19-13.51H676c-.13-5.55-1.2-8.5-7.09-8.5a20.49,20.49,0,0,0-9,2l-2.08-4a25.51,25.51,0,0,1,11.51-2.48c9.63,0,11.51,4.22,11.51,13.18V152c0,3,.2,3.81,3,3.81v4.35a7.85,7.85,0,0,1-1.28.07c-4.14,0-5.35-1-5.88-3.82-2.28,3.22-5.89,4.15-10.57,4.15C658.4,160.54,655.39,156.46,655.39,149.1Zm20.6-3.28v-6h-1.54c-9.9,0-14.38,1.28-14.38,8.9,0,6,2.61,7.69,7,7.69C671.64,156.39,676,154.25,676,145.82Z"/><path class="cls-2" d="M690.37,111.37h5v7h-5Zm0,11.91h4.89v36.86h-4.89Z"/><path class="cls-2" d="M703.42,123.55l3.88-.27.47,3.88c1.47-2.61,4.21-4.48,11.1-4.48,9.57,0,10.57,5.42,10.57,13.51v23.95h-4.82V137.2c0-6.49-.66-9.91-7.29-9.91-7.82,0-9,4.62-9,13.79v19.06h-4.88Z"/><path class="cls-2" d="M735.6,149.1c0-10.83,6.55-13.51,19-13.51h1.6c-.13-5.55-1.2-8.5-7.09-8.5a20.49,20.49,0,0,0-9,2l-2.07-4a25.46,25.46,0,0,1,11.5-2.48c9.63,0,11.51,4.22,11.51,13.18V152c0,3,.2,3.81,3,3.81v4.35a7.73,7.73,0,0,1-1.27.07c-4.15,0-5.35-1-5.89-3.82-2.27,3.22-5.89,4.15-10.57,4.15C738.61,160.54,735.6,156.46,735.6,149.1Zm20.6-3.28v-6h-1.54c-9.9,0-14.38,1.28-14.38,8.9,0,6,2.61,7.69,7,7.69C751.85,156.39,756.2,154.25,756.2,145.82Z"/><path class="cls-2" d="M770.38,123.55l3.89-.27.46,3.88c1.48-2.61,4.22-4.48,11.11-4.48,9.56,0,10.57,5.42,10.57,13.51v23.95h-4.82V137.2c0-6.49-.67-9.91-7.29-9.91-7.83,0-9,4.62-9,13.79v19.06h-4.89Z"/><path class="cls-2" d="M801.56,123.28h5.62L808,113l4-.87v11.17h8.76v4.28H812v22.88c0,3.48.53,5.35,4.68,5.35h4.08v4.35c-.67.07-4,.13-4.55.13-7.56,0-9.1-3-9.1-9.36V127.56h-5.55Z"/><path class="cls-2" d="M271.39,203.56h5l9.09,30.5,9.1-30.5h4.82L288,240.69h-5.15Z"/><path class="cls-2" d="M301.9,221.89c0-10.64,1.94-18.93,14.18-18.93s14.25,8.43,14.25,18.93c0,10.84-1.94,19.07-14.25,19.07C304,241,301.9,232.66,301.9,221.89Zm23.48.2c0-8.16-.87-14.58-9.3-14.58s-9.3,6.42-9.3,14.58.94,14.52,9.3,14.52S325.38,230.12,325.38,222.09Z"/><path class="cls-2" d="M333.74,238.55l1.94-4a20.68,20.68,0,0,0,9.43,2.21c4.35,0,6.89-1.81,6.89-5.69s-2.47-5.35-7.76-7.89c-5.88-2.81-9.43-5-9.43-10.77,0-6.36,3.88-9.5,11-9.5a21.46,21.46,0,0,1,9.43,1.74l-1.87,4.08a19.3,19.3,0,0,0-7.69-1.54c-4.48,0-6.16,1.94-6.16,5.15s2.28,4.68,7.5,7.16c6,2.81,9.63,5.08,9.63,11.57s-4.35,9.77-11.51,9.77A25.43,25.43,0,0,1,333.74,238.55Z"/><path class="cls-2" d="M373,229.38c0-10.84,6.56-13.51,19-13.51h1.6c-.13-5.55-1.2-8.5-7.09-8.5a20.52,20.52,0,0,0-9,2l-2.07-4a25.46,25.46,0,0,1,11.5-2.48c9.64,0,11.51,4.22,11.51,13.18v16.19c0,3,.2,3.81,3,3.81v4.35a7.73,7.73,0,0,1-1.27.07c-4.15,0-5.35-1-5.89-3.82-2.27,3.21-5.88,4.15-10.57,4.15C376,240.82,373,236.74,373,229.38Zm20.6-3.28v-6h-1.54c-9.9,0-14.38,1.27-14.38,8.9,0,6,2.61,7.69,7,7.69C389.27,236.67,393.61,234.53,393.61,226.1Z"/><path class="cls-2" d="M407.8,203.83l3.88-.27.47,3.95C413.48,204.83,416,203,423,203c6.49,0,8,2,9,4.68,1.47-2.81,4.41-4.68,11.5-4.68,9.7,0,10.17,5.42,10.17,13.51v23.95H448.8V217.47c0-6.48-.26-9.9-6.95-9.9-7.43,0-8.7,4.08-8.7,13.78v19.07h-4.82V217.47c0-6.48-.26-9.9-6.95-9.9-7.5,0-8.77,4.22-8.77,13.78v19.07H407.8Z"/><path class="cls-2" d="M460.78,191.65h5v7h-5Zm0,11.91h4.88v36.86h-4.88Z"/><path class="cls-2" d="M471.15,238.55l1.94-4a20.68,20.68,0,0,0,9.43,2.21c4.35,0,6.89-1.81,6.89-5.69s-2.47-5.35-7.76-7.89c-5.88-2.81-9.43-5-9.43-10.77,0-6.36,3.88-9.5,11-9.5a21.49,21.49,0,0,1,9.43,1.74l-1.87,4.08a19.3,19.3,0,0,0-7.69-1.54c-4.48,0-6.16,1.94-6.16,5.15s2.28,4.68,7.49,7.16c6,2.81,9.64,5.08,9.64,11.57s-4.35,9.77-11.51,9.77A25.43,25.43,0,0,1,471.15,238.55Z"/><path class="cls-2" d="M514.7,233.33h6.16v7.09H514.7Zm.47-42.48h5.35L520,226.77h-4.35Z"/><path class="cls-2" d="M534.24,233.33h6.15v7.09h-6.15Zm.46-42.48h5.35l-.53,35.92h-4.35Z"/><path class="cls-2" d="M553.77,233.33h6.15v7.09h-6.15Zm.47-42.48h5.35l-.54,35.92h-4.34Z"/></g></g></svg>