<svg viewBox="0 0 252 111" xmlns="http://www.w3.org/2000/svg"><defs><linearGradient x1="50%" y1="-4.839%" x2="50%" y2="104.558%" id="a"><stop stop-color="#4FAFE0" offset="0%"/><stop stop-color="#4DAADD" offset="19%"/><stop stop-color="#469CD5" offset="40%"/><stop stop-color="#3A84C8" offset="64%"/><stop stop-color="#2A64B6" offset="88%"/><stop stop-color="#2151AB" offset="100%"/></linearGradient></defs><g fill-rule="nonzero" fill="none"><path fill="#000" d="M11.4836029 95.1813389L11.4836029 110.17795 5.92477941 110.17795 5.92477941 95.1813389 0.0416911765 95.1813389 0.0416911765 89.9517992 17.3574265 89.9517992 17.3574265 95.1813389z"/><path d="M36.2666912,107.544603 L35.2846324,110.229038 L28.7993382,110.229038 L38.0177206,89.9564435 L40.7971324,89.9564435 L50.0294118,110.229038 L43.5441176,110.229038 L42.5620588,107.544603 L36.2666912,107.544603 Z M39.4166912,98.9571967 L37.9019118,103.072092 L40.9036765,103.072092 L39.4166912,98.9571967 Z" fill="#000"/><path fill="#000" d="M82.3678676 110.49841L71.6254412 100.317992 71.6254412 110.191883 66.0249265 110.191883 66.0249265 89.7938912 67.9983088 89.7938912 78.75 100.146151 78.75 89.7938912 84.3458824 89.7938912 84.3458824 110.49841z"/><path fill="#000" d="M112.751471 105.426778L120.936838 105.426778 120.936838 110.396234 103.639632 110.396234 103.639632 109.3141 111.792574 95.209205 103.639632 95.209205 103.639632 89.9517992 120.941471 89.9517992 120.941471 91.3451046z"/><path d="M144.385809,107.558536 L143.40375,110.242971 L136.918456,110.242971 L146.146103,89.9517992 L148.925515,89.9517992 L158.153162,110.242971 L151.667868,110.242971 L150.685809,107.558536 L144.385809,107.558536 Z M147.540441,98.9664854 L146.025662,103.104603 L149.032059,103.104603 L147.540441,98.9664854 Z" fill="#000"/><path d="M237.917647,107.558536 L236.935588,110.242971 L230.450294,110.242971 L239.677941,89.9517992 L242.457353,89.9517992 L251.685,110.242971 L245.199706,110.242971 L244.217647,107.558536 L237.917647,107.558536 Z M241.072279,98.9664854 L239.5575,103.104603 L242.563897,103.104603 L241.072279,98.9664854 Z" fill="#000"/><path fill="#000" d="M188.407059 110.647029L177.669265 100.480544 177.669265 110.345146 172.078015 110.345146 172.078015 89.9517992 174.051397 89.9517992 184.789191 100.317992 184.789191 89.9517992 190.389706 89.9517992 190.389706 110.642385z"/><path fill="#000" d="M215.441471 110.49841L210.276397 110.49841 210.276397 94.0109623 207.784191 94.0109623 207.784191 89.7938912 215.441471 89.7938912z"/><path d="M27.8358088,47.5767364 L48.9176471,47.5767364 L48.9176471,66.1820084 L0,66.1820084 L0,47.5767364 L21.0864706,25.5903766 L0,25.5903766 L0,6.9665272 L48.9176471,6.9665272 L48.9176471,25.5903766 L27.8358088,47.5767364 Z M219.772721,46.7314644 L209.651029,33.2024686 L209.651029,66.177364 L187.721471,66.177364 L187.721471,6.9665272 L209.660294,6.9665272 L219.772721,19.650251 L229.787868,6.9665272 L251.823971,6.9665272 L251.823971,66.1820084 L229.894412,66.1820084 L229.894412,33.207113 L219.772721,46.7314644 L219.772721,46.7314644 Z M148.087059,2.10853556 C141.880944,2.09494435 135.788044,3.77422989 130.460956,6.9665272 L129.242647,7.70033473 C126.390917,4.14815821 122.082116,2.08977159 117.534048,2.10694105 C112.985981,2.12411051 108.692762,4.21497072 105.867794,7.78857741 L104.691176,6.9665272 C92.5936904,-0.27198596 77.3157968,0.621314681 66.1395732,9.220645 C54.9633495,17.8199753 50.1506275,32.3850124 53.9953499,45.9734558 C57.8400723,59.5618992 69.5641486,69.4237348 83.5793979,70.8584029 C97.5946472,72.293071 111.064679,65.0102252 117.569118,52.4811715 C125.352395,67.4968099 142.855094,74.6287952 158.879699,69.3143729 C174.904304,63.9999507 184.712568,47.81052 182.029561,31.103421 C179.346555,14.396322 164.965605,2.11160608 148.087059,2.10853556 L148.087059,2.10853556 Z" fill="#0B487F"/><path d="M27.8358088,45.932636 L48.9176471,45.932636 L48.9176471,64.5564854 L0,64.5564854 L0,45.932636 L21.0864706,23.9462762 L0,23.9462762 L0,5.34564854 L48.9176471,5.34564854 L48.9176471,23.9462762 L27.8358088,45.932636 Z M219.772721,45.087364 L209.651029,31.5583682 L209.651029,64.5332636 L187.721471,64.5332636 L187.721471,5.34564854 L209.660294,5.34564854 L219.772721,18.0293724 L229.787868,5.34564854 L251.823971,5.34564854 L251.823971,64.5564854 L229.894412,64.5564854 L229.894412,31.58159 L219.772721,45.087364 L219.772721,45.087364 Z M148.087059,0.464435146 C141.878765,0.457860252 135.785713,2.14521506 130.460956,5.34564854 L129.242647,6.0376569 C126.390917,2.48548038 122.082116,0.427093763 117.534048,0.444263225 C112.985981,0.461432687 108.692762,2.55229289 105.867794,6.12589958 L104.691176,5.34564854 C92.5936904,-1.89286462 77.3157968,-0.99956398 66.1395732,7.59976634 C54.9633495,16.1990967 50.1506275,30.7641338 53.9953499,44.3525771 C57.8400723,57.9410205 69.5641486,67.8028561 83.5793979,69.2375243 C97.5946472,70.6721924 111.064679,63.3893465 117.569118,50.8602929 C125.361542,65.8657192 142.862393,72.9852102 158.880362,67.6660492 C174.898331,62.3468882 184.69997,46.160933 182.017404,29.4586524 C179.334838,12.7563717 164.960788,0.47343337 148.087059,0.464435146 Z" fill="url(#a)"/><ellipse fill="#0B487F" cx="87.088" cy="33.565" rx="17.367" ry="17.412"/><ellipse fill="#0B487F" cx="148.087" cy="33.565" rx="17.367" ry="17.412"/><ellipse fill="#FFF" cx="87.088" cy="34.991" rx="17.367" ry="17.412"/><ellipse fill="#FFF" cx="148.087" cy="34.991" rx="17.367" ry="17.412"/><path d="M87.4819853,27.2019665 L87.2457353,27.2019665 C87.8626333,29.2562284 87.2486847,31.4831316 85.6670557,32.9281241 C84.0854268,34.3731165 81.8169394,34.7796365 79.8339706,33.973431 C79.435232,37.1659826 81.0486941,40.2727624 83.886099,41.7759511 C86.723504,43.2791398 90.19264,42.864998 92.5986586,40.7358549 C95.0046772,38.6067118 95.8454039,35.2069535 94.710101,32.1975341 C93.5747982,29.1881148 90.7004217,27.1971481 87.49125,27.1973222 L87.4819853,27.2019665 Z" fill="#000"/><path d="M148.263088,27.313431 L148.017574,27.313431 C148.648725,29.3409471 148.052401,31.5514826 146.487956,32.9836328 C144.92351,34.4157829 142.673689,34.8107101 140.716985,33.9966527 C140.325989,37.1431589 141.917776,40.2039379 144.714803,41.6838827 C147.511829,43.1638274 150.930427,42.7541117 153.300705,40.6548703 C155.670982,38.555629 156.498324,35.2049196 155.378596,32.2394723 C154.258867,29.274025 151.425728,27.3126522 148.263088,27.313431 L148.263088,27.313431 Z" fill="#000"/></g></svg>